<?xml version="1.0" standalone="no"?><!DOCTYPE svg PUBLIC "-//W3C//DTD SVG 1.1//EN" "http://www.w3.org/Graphics/SVG/1.1/DTD/svg11.dtd"><svg class="icon" width="32px" height="32.00px" viewBox="0 0 1024 1024" version="1.1" xmlns="http://www.w3.org/2000/svg"><path fill="#ffffff" d="M692.17792 355.65568c11.70432 0 23.2448 0.7936 34.69312 2.03264-31.16544-138.64448-186.40896-241.64352-363.5968-241.64352C165.1968 116.0448 2.92352 244.992 2.92352 408.69376c0 94.51008 53.99552 172.09856 144.20992 232.2944l-36.02944 103.4752 125.98784-60.32384c45.06112 8.51968 81.24928 17.26464 126.21312 17.26464 11.32032 0 22.51264-0.54272 33.64352-1.36704-7.06048-22.9888-11.13088-47.09376-11.13088-72.0896 0-150.30784 135.21408-272.29184 306.36032-272.29184zM498.42176 262.35904c27.12576 0 45.09184 17.04448 45.09184 42.96192 0 25.78944-17.96608 43.05408-45.09184 43.05408-26.99776 0-54.12352-17.30048-54.12352-43.05408 0.03072-25.91744 27.12576-42.96192 54.12352-42.96192z m-252.20096 86.016c-26.99776 0-54.28224-17.30048-54.28224-43.05408 0-25.88672 27.25376-42.96192 54.28224-42.96192 26.99776 0 44.99456 17.04448 44.99456 42.96192 0 25.75872-17.96608 43.05408-44.99456 43.05408z m774.85568 275.44576c0-137.53344-144.1792-249.68704-306.0992-249.68704-171.46368 0-306.4832 112.12288-306.4832 249.68704 0 137.82016 135.05024 249.72288 306.4832 249.72288 35.87072 0 72.0896-8.64768 108.11904-17.26464l98.83136 51.67616-27.09504-85.98528c72.37632-51.84 126.24384-120.55552 126.24384-198.14912z m-405.44256-43.05408c-17.93536 0-36.06016-17.04448-36.06016-34.43712 0-17.14176 18.09408-34.4064 36.06016-34.4064 27.25376 0 45.12256 17.26464 45.12256 34.4064-0.03072 17.39264-17.8688 34.43712-45.12256 34.43712z m198.20544 0c-17.80736 0-35.80416-17.04448-35.80416-34.43712 0-17.14176 17.96608-34.4064 35.80416-34.4064 26.99776 0 45.12256 17.26464 45.12256 34.4064-0.03072 17.39264-18.1248 34.43712-45.12256 34.43712z"  /></svg>