<?xml version="1.0" standalone="no"?><!DOCTYPE svg PUBLIC "-//W3C//DTD SVG 1.1//EN" "http://www.w3.org/Graphics/SVG/1.1/DTD/svg11.dtd"><svg t="1684582091660" class="icon" viewBox="0 0 1024 1024" version="1.1" xmlns="http://www.w3.org/2000/svg" p-id="6386" xmlns:xlink="http://www.w3.org/1999/xlink" width="200" height="200"><path d="M783.8 656.2c-2.6-0.4-5.4-0.6-8.3-0.4 1.8-2.3 3.4-4.6 4.6-7 18.7-36.4 4.4-81-31.9-99.8-5.1-2.6-10.3-4.6-15.6-5.9-5.2 42.1-49.5 75-103.3 75h-3.2c-28.2 44.4-40.9 98.3-32 153.5 7.2 44.8 27.6 84.3 56.7 115.5 12.6 5.6 26.8 7.8 41.5 5.6 40.4-6.2 68.2-44 61.9-84.5-0.4-2.6-1.1-5.3-2.2-8.1 2.7 1 5.4 1.8 8 2.2 40.4 6.6 78.4-20.8 85-61.2 6.6-40.2-20.8-78.3-61.2-84.9z m-97.1 63.1c-5.9 11.4-20 15.9-31.4 10.1-11.4-5.9-15.9-20-10.1-31.4s20-15.9 31.4-10.1c11.5 5.9 16 20 10.1 31.4z" fill="#CC0000" p-id="6387"></path><path d="M683.2 692.8c-1.2-1.3-1.1-3.3 0.2-4.5l44.3-41.1c1.3-1.2 3.3-1.1 4.5 0.2 1.2 1.3 1.1 3.3-0.2 4.5L687.7 693c-1.3 1.1-3.3 1-4.5-0.2z" fill="#FFBE92" p-id="6388"></path><path d="M728.6 650.7m-9.5 0a9.5 9.5 0 1 0 19 0 9.5 9.5 0 1 0-19 0Z" fill="#FFBE92" p-id="6389"></path><path d="M677.5 688.3c-1.5-0.9-2.1-2.8-1.2-4.3l29.5-52.8c0.9-1.5 2.8-2.1 4.3-1.2 1.5 0.9 2.1 2.8 1.2 4.3L681.8 687c-0.8 1.6-2.8 2.1-4.3 1.3z" fill="#FFBE92" p-id="6390"></path><path d="M707.7 634.2m-9.5 0a9.5 9.5 0 1 0 19 0 9.5 9.5 0 1 0-19 0Z" fill="#FFBE92" p-id="6391"></path><path d="M706.5 541.3c-0.1 0-0.2 0.1-0.3 0.2-23.5 2.9-45.2 17-56.8 39.6-1.2 2.4-6.3 3.1-8.2 1.3-28.8-29-75.7-29.3-104.7-0.5s-29.3 75.7-0.5 104.7c1.9 1.9 4 3.6 6.5 5.3-2.8 0.8-5.4 1.7-7.8 2.9-34.1 17.2-49.1 57-36.1 92 22.4-29.4 54.8-50.2 93-56.3 0.2 0 0.5-0.1 0.7-0.1 1.2-40.4 13.6-78.9 34.7-112.1h2.3c53.8 0 98.1-32.9 103.3-75-8.7-2.3-17.5-2.9-26.1-2z" fill="#A80000" p-id="6392"></path><path d="M658.2 690.6c-1.6 0.7-3.5 0-4.2-1.5l-25.4-54.8c-0.7-1.6 0-3.5 1.5-4.2 1.6-0.7 3.5 0 4.2 1.5l25.4 54.8c0.8 1.5 0.1 3.4-1.5 4.2z" fill="#FFBE92" p-id="6393"></path><path d="M632.2 634.4m-9.5 0a9.5 9.5 0 1 0 19 0 9.5 9.5 0 1 0-19 0Z" fill="#FFBE92" p-id="6394"></path><path d="M652.2 694.6c-1.3 1.2-3.3 1.1-4.5-0.2l-41.1-44.3c-1.2-1.3-1.1-3.3 0.2-4.5 1.3-1.2 3.3-1.1 4.5 0.2l41.1 44.3c1.1 1.3 1.1 3.3-0.2 4.5z" fill="#FFBE92" p-id="6395"></path><path d="M610.1 649.2m-9.5 0a9.5 9.5 0 1 0 19 0 9.5 9.5 0 1 0-19 0Z" fill="#FFBE92" p-id="6396"></path><path d="M600.3 827c2.4-1.2 4.7-2.7 7-4.5-0.1 2.9 0 5.7 0.4 8.3 4 25.8 20.8 46.4 43 56.3-29.1-31.1-49.5-70.6-56.7-115.5-2.2-13.9-3.1-27.8-2.7-41.4-0.2 0-0.5 0.1-0.7 0.1-38.2 6.1-70.6 27-93 56.3 0.9 2.5 2 5 3.3 7.5 18.4 36.6 62.9 51.3 99.4 32.9z" fill="#CC0000" p-id="6397"></path><path d="M646.2 716.7c0.5 1.7-0.5 3.4-2.2 3.9l-58.1 16.6c-1.7 0.5-3.4-0.5-3.9-2.2-0.5-1.7 0.5-3.4 2.2-3.9l58.1-16.6c1.6-0.5 3.4 0.5 3.9 2.2z" fill="#FFBE92" p-id="6398"></path><path d="M586.7 733.7m-9.5 0a9.5 9.5 0 1 0 19 0 9.5 9.5 0 1 0-19 0Z" fill="#FFBE92" p-id="6399"></path><path d="M649.2 723.3c1 1.4 0.6 3.4-0.9 4.4l-50.1 33.7c-1.4 1-3.4 0.6-4.4-0.9-1-1.4-0.6-3.4 0.9-4.4l50.1-33.7c1.5-0.9 3.5-0.6 4.4 0.9z" fill="#FFBE92" p-id="6400"></path><path d="M597.9 757.9m-9.5 0a9.5 9.5 0 1 0 19 0 9.5 9.5 0 1 0-19 0Z" fill="#FFBE92" p-id="6401"></path><path d="M667.5 729.9c1.7 0.1 3.1 1.5 3.1 3.3l-2.2 60.4c-0.1 1.7-1.5 3.1-3.3 3.1-1.7-0.1-3.1-1.5-3.1-3.3l2.2-60.4c0.1-1.7 1.5-3.1 3.3-3.1z" fill="#FFBE92" p-id="6402"></path><path d="M665.3 791.8m-9.5 0a9.5 9.5 0 1 0 19 0 9.5 9.5 0 1 0-19 0Z" fill="#FFBE92" p-id="6403"></path><path d="M674.7 729.1c1.7-0.5 3.4 0.5 3.9 2.2l16.6 58.1c0.5 1.7-0.5 3.4-2.2 3.9-1.7 0.5-3.4-0.5-3.9-2.2L672.5 733c-0.5-1.7 0.5-3.5 2.2-3.9z" fill="#FFBE92" p-id="6404"></path><path d="M691.7 788.6m-9.5 0a9.5 9.5 0 1 0 19 0 9.5 9.5 0 1 0-19 0Z" fill="#FFBE92" p-id="6405"></path><path d="M686.7 713.8c0.6-1.6 2.4-2.5 4.1-1.9l56.8 20.7c1.6 0.6 2.5 2.4 1.9 4.1-0.6 1.6-2.4 2.5-4.1 1.9l-56.8-20.7c-1.7-0.7-2.5-2.5-1.9-4.1z" fill="#FFBE92" p-id="6406"></path><path d="M744.8 735m-9.5 0a9.5 9.5 0 1 0 19 0 9.5 9.5 0 1 0-19 0Z" fill="#FFBE92" p-id="6407"></path><path d="M688.1 706.6c0.1-1.7 1.5-3.1 3.3-3.1l60.4 2.2c1.7 0.1 3.1 1.5 3.1 3.3-0.1 1.7-1.5 3.1-3.3 3.1l-60.4-2.2c-1.8-0.1-3.2-1.5-3.1-3.3z" fill="#FFBE92" p-id="6408"></path><path d="M749.9 708.8m-9.5 0a9.5 9.5 0 1 0 19 0 9.5 9.5 0 1 0-19 0Z" fill="#FFBE92" p-id="6409"></path><path d="M671.2 741.6c-7 1.1-14.1 0-20.5-3.3-7.9-4.1-13.8-11-16.5-19.5-2.7-8.5-2-17.5 2.1-25.4 4.1-7.9 11-13.8 19.5-16.5 8.5-2.7 17.5-2 25.4 2.1 16.3 8.4 22.8 28.5 14.4 44.9-4.1 7.9-11 13.8-19.5 16.5-1.6 0.5-3.3 0.9-4.9 1.2z m-7.3-46.1c-0.7 0.1-1.3 0.3-2 0.5-3.4 1.1-6.1 3.4-7.8 6.6-1.6 3.2-1.9 6.8-0.8 10.2 1.1 3.4 3.4 6.1 6.6 7.8 3.2 1.6 6.8 1.9 10.2 0.8 3.4-1.1 6.1-3.4 7.8-6.6 3.4-6.5 0.8-14.6-5.7-17.9-2.7-1.4-5.6-1.8-8.3-1.4z" fill="#231815" p-id="6410"></path><path d="M669.2 370.2c-3.8-1.9-7.9-3.3-12.3-4.5 3.8-2.6 7.2-5.4 10.1-8.4 44.9-46.1 44-119.9-2.2-164.9-46.1-44.9-119.9-44-164.9 2.2-2.9 3-5.6 6.5-8.1 10.3-1.3-4.4-2.9-8.5-4.8-12.2-30-57-100.5-78.9-157.5-48.9s-78.9 100.5-48.9 157.5c1.9 3.7 4.4 7.3 7.3 10.9-4.6-0.1-9 0.1-13.1 0.8-63.5 10.9-106.1 71.2-95.2 134.6s71.2 106.1 134.6 95.2c4.1-0.7 8.3-1.9 12.6-3.6-1.6 4.3-2.7 8.6-3.3 12.7-9.2 63.7 34.9 122.9 98.6 132.1s122.9-34.9 132.1-98.6c0.6-4.1 0.7-8.5 0.5-13.1 3.6 2.8 7.3 5.2 11.1 7 57.7 28.5 127.7 4.8 156.1-53 28.8-57.7 5.1-127.6-52.7-156.1z m-191 56.2c-17.9 9.4-40.1 2.5-49.6-15.4-9.4-17.9-2.5-40.1 15.4-49.6 17.9-9.4 40.1-2.5 49.6 15.4 9.5 18 2.6 40.2-15.4 49.6z" fill="#CC0000" p-id="6411"></path><path d="M447.9 363c-2.6 0.8-5.4-0.7-6.2-3.3l-27.7-91c-0.8-2.6 0.7-5.4 3.3-6.2 2.6-0.8 5.4 0.7 6.2 3.3l27.7 91c0.9 2.6-0.6 5.4-3.3 6.2z" fill="#FFBE92" p-id="6412"></path><path d="M419.5 269.8m-15 0a15 15 0 1 0 30 0 15 15 0 1 0-30 0Z" fill="#FFBE92" p-id="6413"></path><path d="M437.6 368c-2.3 1.6-5.4 1-7-1.2l-54.5-78c-1.6-2.3-1-5.4 1.2-7 2.3-1.6 5.4-1 7 1.2l54.5 78c1.7 2.3 1.1 5.5-1.2 7z" fill="#FFBE92" p-id="6414"></path><path d="M381.8 288.2m-15 0a15 15 0 1 0 30 0 15 15 0 1 0-30 0Z" fill="#FFBE92" p-id="6415"></path><path d="M427.7 396.9c-0.1 2.7-2.3 5-5.1 4.9l-95.1-1.8c-2.7-0.1-5-2.3-4.9-5.1 0.1-2.7 2.3-5 5.1-4.9l95.1 1.8c2.7 0.1 4.9 2.4 4.9 5.1z" fill="#FFBE92" p-id="6416"></path><path d="M330.3 395.1m-15 0a15 15 0 1 0 30 0 15 15 0 1 0-30 0Z" fill="#FFBE92" p-id="6417"></path><path d="M429.3 408.3c0.8 2.6-0.7 5.4-3.3 6.2l-91 27.7c-2.6 0.8-5.4-0.7-6.2-3.3-0.8-2.6 0.7-5.4 3.3-6.2l91-27.7c2.6-0.9 5.4 0.6 6.2 3.3z" fill="#FFBE92" p-id="6418"></path><path d="M336.1 436.7m-15 0a15 15 0 1 0 30 0 15 15 0 1 0-30 0Z" fill="#FFBE92" p-id="6419"></path><path d="M453.7 426.7c2.6 0.9 4 3.8 3.1 6.4L425.7 523c-0.9 2.6-3.8 4-6.4 3.1-2.6-0.9-4-3.8-3.1-6.4l31.1-89.9c0.9-2.6 3.8-4 6.4-3.1z" fill="#FFBE92" p-id="6420"></path><path d="M421.9 518.8m-15 0a15 15 0 1 0 30 0 15 15 0 1 0-30 0Z" fill="#FFBE92" p-id="6421"></path><path d="M465 428.7c2.7 0.1 5 2.3 4.9 5.1l-1.8 95.1c-0.1 2.7-2.3 5-5.1 4.9-2.7-0.1-5-2.3-4.9-5.1l1.8-95.1c0-2.8 2.3-5 5.1-4.9z" fill="#FFBE92" p-id="6422"></path><path d="M463.2 526.1m-15 0a15 15 0 1 0 30 0 15 15 0 1 0-30 0Z" fill="#FFBE92" p-id="6423"></path><path d="M490 411.1c1.7-2.2 4.8-2.6 7-1l75.9 57.3c2.2 1.7 2.6 4.8 1 7-1.7 2.2-4.8 2.6-7 1L491 418.1c-2.2-1.6-2.7-4.8-1-7z" fill="#FFBE92" p-id="6424"></path><path d="M567.8 469.9m-15 0a15 15 0 1 0 30 0 15 15 0 1 0-30 0Z" fill="#FFBE92" p-id="6425"></path><path d="M495.4 401c0.9-2.6 3.8-4 6.4-3.1l89.9 31.1c2.6 0.9 4 3.8 3.1 6.4-0.9 2.6-3.8 4-6.4 3.1l-89.9-31.1c-2.6-0.9-4-3.8-3.1-6.4z" fill="#FFBE92" p-id="6426"></path><path d="M587.5 432.8m-15 0a15 15 0 1 0 30 0 15 15 0 1 0-30 0Z" fill="#FFBE92" p-id="6427"></path><path d="M486.4 371.8c-1.6-2.3-1-5.4 1.2-7l78-54.5c2.3-1.6 5.4-1 7 1.2 1.6 2.3 1 5.4-1.2 7l-78 54.5c-2.2 1.6-5.4 1.1-7-1.2z" fill="#FFBE92" p-id="6428"></path><path d="M566.3 316m-15 0a15 15 0 1 0 30 0 15 15 0 1 0-30 0Z" fill="#FFBE92" p-id="6429"></path><path d="M478.5 363.6c-2.2-1.7-2.6-4.8-1-7l57.3-75.9c1.7-2.2 4.8-2.6 7-1 2.2 1.7 2.6 4.8 1 7l-57.3 75.9c-1.7 2.2-4.8 2.6-7 1z" fill="#FFBE92" p-id="6430"></path><path d="M537.2 285.8m-15 0a15 15 0 1 0 30 0 15 15 0 1 0-30 0Z" fill="#FFBE92" p-id="6431"></path><path d="M558.8 578m-10.1 0a10.1 10.1 0 1 0 20.2 0 10.1 10.1 0 1 0-20.2 0Z" fill="#231815" p-id="6432"></path><path d="M791.7 647.6c7.9-18.5 8.8-39 2.6-58.3-6.8-21.4-21.6-38.8-41.6-49.1-16.8-8.7-35.6-11.3-53.9-7.9-0.3 0.1-1 0.2-1.1 0.2-0.5 0.1-1 0.2-1.4 0.3-0.6 0.2-1.1 0.4-1.6 0.7-3.7 1.9-6 6.1-5.3 10.5 0.9 5.5 6 9.2 11.5 8.3 0.6-0.1 3.9-0.8 5-1 12.9-1.7 25.9 0.5 37.7 6.6 15.2 7.8 26.5 21.1 31.7 37.4 5.2 16.3 3.8 33.6-4.1 48.9-0.9 1.7-2 3.5-3.5 5.3l-13.8 17.1 22-0.9c2.3-0.1 4.4 0 6.3 0.3 34.9 5.7 58.6 38.7 52.9 73.5-5.7 34.9-38.7 58.6-73.5 52.9-1.9-0.3-3.9-0.9-6.1-1.7l-20.6-7.8 7.6 20.6c0.8 2.2 1.4 4.2 1.6 6.1 5.4 34.8-18.5 67.4-53.2 73-0.1 0-0.3 0-0.4 0.1-34.9 5.4-67.7-18.7-73.1-53.6-0.3-1.9-0.4-4-0.3-6.3l1.1-22-17.3 13.6c-1.8 1.4-3.6 2.6-5.3 3.5-31.5 15.9-70.1 3.2-86-28.4-7.7-15.3-9-32.6-3.6-48.9 5.4-16.3 16.7-29.4 32-37.1 1.7-0.9 3.7-1.6 5.9-2.2l21.2-5.8-18.1-12c-1.9-1.3-3.6-2.6-4.9-4-4.3-4.3-7.8-9.1-10.7-14.2l-0.7-1.4c-0.1-0.3-0.3-0.5-0.5-0.8-0.2-0.4-0.5-0.8-0.8-1.1-2.2-2.6-5.7-4-9.3-3.4-3.6 0.6-6.4 3-7.7 6.2-0.7 1.6-0.9 3.5-0.6 5.4 0.1 0.7 0.3 1.3 0.5 1.9 0.2 0.6 0.5 1.1 0.7 1.6 0.1 0.2 0.8 1.3 1 1.7 2.7 4.8 5.9 9.4 9.5 13.7-17.2 10.4-30 26.4-36.4 45.7-7 21.3-5.3 44.1 4.8 64.2 16.9 33.5 53.2 50.8 88.4 45.2 6.3-1 12.5-2.8 18.6-5.3 9.8 42.4 51 70.7 94.7 64 0.2 0 0.4-0.1 0.5-0.1 43.4-7 73.8-46.2 70.5-89.4 43.3 3.7 83-26.6 90.1-70.2 7.3-44-20.7-85.4-63-95.6zM252.5 330c-0.5 0.2-0.9 0.4-1.4 0.6 0.5-0.1 1-0.3 1.4-0.6z" fill="#231815" p-id="6433"></path><path d="M548.4 599.4c-0.4 0-0.8 0-1.2 0.1-3.5 0.4-6.5 2.7-7.9 5.8-0.2 0.4-0.3 0.9-0.5 1.3-7.1 18.8-19.4 35.2-35.9 47.5-22.8 17-50.9 24.2-79.1 20.1-28.2-4.1-53.1-18.9-70.1-41.7s-24.2-50.9-20.1-79.1c0.5-3.4 1.4-7 2.8-10.8l7.4-20.7-20.5 8c-3.8 1.5-7.4 2.5-10.7 3.1-28.1 4.8-56.3-1.6-79.6-18-23.3-16.4-38.7-40.9-43.5-69-8.4-48.9 18.2-95.9 61.5-115.3 0.5-0.2 0.9-0.4 1.4-0.6 2.8-1.5 4.8-4.4 5.2-7.8 0-0.3 0.1-0.7 0.1-1 0-2.8-1.1-5.3-2.9-7.1-1.8-1.8-4.4-3-7.2-3-1 0-2 0.2-2.9 0.4-0.7 0.2-2.6 1.1-2.8 1.2-20.1 9.2-37.6 23.5-50.7 42.1-19.5 27.6-27.1 61.2-21.4 94.5 5.7 33.3 24.1 62.4 51.7 81.9 26.9 19 59.4 26.7 91.9 21.8-4.1 32.6 4.5 64.9 24.2 91.3 20.2 27.1 49.8 44.7 83.3 49.5 6.2 0.9 12.3 1.3 18.4 1.3 27.1 0 53.4-8.7 75.5-25.2 19.3-14.4 33.7-33.5 42.2-55.4 0.1-0.2 0.3-0.8 0.4-0.9 0.6-1.3 1-2.8 1-4.4 0.1-5.4-4.4-9.9-10-9.9zM737.5 434.1c-10.6-31.2-32.4-56.5-61.5-71.7 22.4-24 34.5-55.2 34.1-88.1-0.4-33.8-14-65.4-38.2-89-49.4-48.1-128.3-47.7-177.2 0.5-15.9-28.7-41.8-49.9-73.2-59.6-32.3-10-66.6-6.9-96.5 8.9-58.2 30.6-82.7 100.4-58.2 160 0 0.1 0.1 0.1 0.1 0.2v0.1c1.6 3.6 5.1 6 9.2 6 5.6 0 10.1-4.5 10.1-10.1 0-0.4 0-0.8-0.1-1.1-0.1-0.5-0.1-0.9-0.3-1.4-0.2-0.7-1.2-2.8-1.2-3-19.5-49.8 1.2-107.6 49.7-133 25.2-13.3 54-15.9 81.2-7.5 27.2 8.4 49.5 27 62.7 52.2 1.6 3 2.9 6.5 4.1 10.4l6.1 21.1 11.9-18.5c2.2-3.4 4.5-6.4 6.8-8.8 41-42.1 108.6-43 150.7-2 42.1 41 43 108.6 2 150.7-2.4 2.4-5.2 4.8-8.6 7.1L633 369.9l21.3 5.6c3.9 1 7.4 2.3 10.5 3.8 25.5 12.6 44.6 34.4 53.8 61.3 4.2 12.3 6 24.9 5.7 37.5 0 0.8 0 3.3 0.1 3.8 1 4.5 5 7.8 9.8 7.8 4.8 0 8.8-3.3 9.8-7.8 0.1-0.2 0.3-1.8 0.3-2.3V478c0.3-14.7-1.9-29.6-6.8-43.9z" fill="#231815" p-id="6434"></path><path d="M502.5 372.2c-5.8-11-15.6-19.2-27.5-22.9-11.9-3.7-24.6-2.5-35.6 3.3-3.3 1.8-6.4 3.9-9.2 6.3-0.1 0.1-0.9 0.7-1.2 1-0.6 0.5-1.1 1-1.5 1.6-1 1.4-1.7 3-1.9 4.9 0 0.4-0.1 0.7-0.1 1.1 0 5.6 4.5 10.1 10.1 10.1 2.1 0 4-0.6 5.6-1.7 0.5-0.3 1-0.7 1.4-1.1l0.2-0.2c1.7-1.6 3.7-3.1 5.9-4.2 3.9-2 8.1-3.1 12.4-3.1 2.7 0 5.3 0.4 8 1.2 6.8 2.1 12.4 6.8 15.7 13.1s4 13.5 1.9 20.3c-2.1 6.8-6.8 12.4-13.1 15.7-6.3 3.3-13.5 4-20.3 1.9-6.8-2.1-12.4-6.8-15.7-13.1-1.2-2.3-2.1-4.8-2.6-7.3-0.1-0.4-0.3-2.7-0.4-3.3-0.1-0.7-0.4-1.3-0.6-2-1.6-3.5-5.1-6-9.2-6-2.8 0-5.4 1.2-7.2 3.1-1.8 1.8-2.8 4.3-2.8 7 0 0.1 0 0.8 0.1 1 0 0.3 0.1 0.6 0.1 0.9 0.7 5.5 2.4 10.9 5 15.9 5.8 11 15.6 19.2 27.5 22.9 4.6 1.4 9.3 2.1 13.9 2.1 7.5 0 14.9-1.8 21.7-5.4 11-5.8 19.2-15.6 22.9-27.5 3.4-12 2.3-24.6-3.5-35.6z" fill="#231815" p-id="6435"></path></svg>