<?xml version="1.0" standalone="no"?><!DOCTYPE svg PUBLIC "-//W3C//DTD SVG 1.1//EN" "http://www.w3.org/Graphics/SVG/1.1/DTD/svg11.dtd"><svg t="1684582590244" class="icon" viewBox="0 0 1024 1024" version="1.1" xmlns="http://www.w3.org/2000/svg" p-id="10687" xmlns:xlink="http://www.w3.org/1999/xlink" width="200" height="200"><path d="M808.7 604.4s104.7 101.8 133.8 110.5c0 0-125.1 52.4-206.5 0 0 0 67.1-78.9 72.7-110.5z" fill="#61FFCB" p-id="10688"></path><path d="M825.9 758.2c-33.9 0-69.8-6.6-100.7-26.5-4.8-3.1-8.1-8.2-9-13.9-0.9-5.7 0.8-11.5 4.5-15.9 26.4-31.1 65-83 68.3-101.1 1.3-7.3 6.5-13.3 13.6-15.5 7-2.3 14.8-0.5 20.1 4.7 48.7 47.3 110.6 101.2 125.6 105.7 8.1 2.4 13.8 9.7 14.2 18.1 0.4 8.4-4.5 16.2-12.3 19.5-3.5 1.5-60.4 24.9-124.3 24.9z m-58.6-49.9c42.6 16.5 94 9 128.6 0.4-26.7-20.6-58-49.1-80.1-69.9-13.3 23.9-33.8 51.1-48.5 69.5z" fill="#078FBC" p-id="10689"></path><path d="M183.9 613.1C102 664.8 96.7 800.4 96.7 800.4c20.2-22.7 156.7-74.7 156.7-74.7-21.5-10.6-33.8-38.4-69.5-112.6z" fill="#61FFCB" p-id="10690"></path><path d="M96.7 820.4c-2.5 0-5-0.5-7.5-1.4-7.9-3.2-12.9-10.9-12.5-19.4 0.2-6 6.8-146.7 96.5-203.4 4.8-3 10.7-3.9 16.2-2.3s10 5.4 12.5 10.6l6 12.5c27.7 57.6 40.3 83.9 54.3 90.8 7.1 3.5 11.5 10.9 11.1 18.9-0.4 8-5.4 14.9-12.9 17.8-63.5 24.2-138.4 57.5-148.8 69.3-3.8 4.2-9.3 6.6-14.9 6.6z m79.9-176.2c-33.1 31.7-48 81.5-54.7 116.5 29-15 66.6-30.9 94.5-42.1-11.3-15.7-22.7-38.9-39.8-74.4z" fill="#078FBC" p-id="10691"></path><path d="M810.2 556c2.9 110.7-84.4 202.8-195.1 205.8-67.1 1.8-130.7-30.2-169.4-85.1-102.7 75.3-247 53.2-322.3-49.5s-53.2-247 49.5-322.3c74.3-54.5 173.8-59.5 253.3-12.9 61.8-77.6 174.8-90.4 252.4-28.6 41.4 33 66.2 82.5 67.7 135.4 0.2 5.3-0.1 10.6-0.3 15.8 39.6 36.4 62.8 87.5 64.2 141.4z" fill="#FF9DB0" p-id="10692"></path><path d="M609.7 781.9c-65.2 0-126.5-28.7-168.3-78.1-50.7 31.6-110.4 43.9-170.1 34.7-66.2-10.2-124.4-45.5-164-99.5-39.6-54-55.8-120.1-45.6-186.3 10.2-66.2 45.5-124.4 99.5-164 76.3-56 176.8-64 260.5-22 70.4-74.6 187.8-84 269.4-19 46.1 36.7 73.5 91.6 75.2 150.5 0.1 2.8 0.1 5.5 0 8.1 39.3 39.5 62.5 93.3 64 149.2 1.6 58.9-19.9 114.9-60.4 157.6-40.5 42.7-95.3 67.2-154.2 68.7-2.1 0-4.1 0.1-6 0.1z m-164-125.3c1.1 0 2.2 0.1 3.2 0.3 5.3 0.9 10 3.8 13.1 8.2 34.9 49.6 91.7 78.1 152.5 76.6 48.2-1.3 93-21.3 126.2-56.2 33.2-35 50.7-80.8 49.5-129-1.3-48.2-22.4-94.6-57.8-127.3-4.3-4-6.7-9.7-6.4-15.6 0.2-5.1 0.4-9.8 0.3-14.3-1.3-47.2-23.2-91-60.1-120.4-68.8-54.8-169.4-43.4-224.3 25.4-6.2 7.8-17.2 9.9-25.8 4.8-72.6-42.7-163.4-38.1-231.3 11.7-45.4 33.3-75 82.2-83.6 137.8-8.5 55.6 5.1 111.2 38.3 156.5 33.3 45.4 82.2 75 137.8 83.6 55.6 8.5 111.2-5.1 156.6-38.3 3.4-2.4 7.6-3.8 11.8-3.8z" fill="#078FBC" p-id="10693"></path><path d="M367.9 577.8c-4.3 0-8.6-1.4-12.3-4.2-8.7-6.8-10.3-19.4-3.5-28.1 1.3-1.7 131.2-163.9 303.9-29.5 8.7 6.8 10.3 19.4 3.5 28.1-6.8 8.7-19.4 10.3-28.1 3.5-141.5-110.2-243.4 17.1-247.7 22.5-3.9 5.1-9.8 7.7-15.8 7.7z" fill="#078FBC" p-id="10694"></path><path d="M447.5 512c-9.2 0-17.5-6.4-19.5-15.8-7.1-33 0.9-101.7 81.6-125.9 10.6-3.2 21.7 2.8 24.9 13.4 3.2 10.6-2.8 21.7-13.4 24.9-64 19.2-55.2 73.2-54 79.3 2.2 10.8-4.8 21.4-15.6 23.6-1.3 0.4-2.7 0.5-4 0.5z" fill="#078FBC" p-id="10695"></path></svg>