<?xml version="1.0" standalone="no"?><!DOCTYPE svg PUBLIC "-//W3C//DTD SVG 1.1//EN" "http://www.w3.org/Graphics/SVG/1.1/DTD/svg11.dtd"><svg t="1715939097877" class="icon" viewBox="0 0 1024 1024" version="1.1" xmlns="http://www.w3.org/2000/svg" p-id="1047" xmlns:xlink="http://www.w3.org/1999/xlink" width="200" height="200"><path d="M753.801124 406.101516c0.517527 8.313557 0.985372 16.635394 1.411814 24.973792-52.464836-110.216731-150.389261-199.575045-247.44424-199.757215-96.87281 0.335358-194.855198 89.412138-247.671953 199.111341 0.529948-10.09385 1.126139-20.17114 1.796855-30.227728-93.680702 26.476691-195.173994 92.943743-211.246319 186.690689-17.989245 107.575272 90.302284 232.895516 220.433461 255.583908-0.161468-1.71405-0.318797-3.42396-0.471984-5.13801 157.98242 23.102414 315.9607 23.288724 473.94726 0.558929l-0.463704 5.13801c130.143598-22.340614 238.406146-147.722961 220.553528-255.683273-16.502907-96.992876-113.408838-158.36746-210.844718-181.250443z" fill="#FF8282" p-id="1048"></path><path d="M501.073966 2.583496c35.415421-0.430583 70.458222 52.423434 77.107411 114.220321 6.446319 61.846569-29.863389 111.185542-79.93518 111.529179-50.067651 0.070384-85.334023-48.684818-77.322702-110.258132C429.129406 56.555371 465.666826 3.117584 501.073966 2.583496z" fill="#CCF7FF" p-id="1049"></path><path d="M903.366482 876.032766c-1.237925 35.750778-39.866155 78.357757-84.286548 90.79083-206.501629 56.108228-413.003259 56.075106-619.500748-0.091085-44.420394-12.449634-83.061044-55.060753-84.30311-90.80325-1.217224-35.837723 35.887405-56.15791 80.89157-47.848494 208.774609 40.408523 417.545077 40.429224 626.315546 0.070383 45.004164-8.309417 82.104654 12.031472 80.88329 47.881616z" fill="#E6B771" p-id="1050"></path><path d="M700.230849 915.534581c-0.600332 39.907557-38.102422 79.355549-82.560077 83.657236-106.846594 10.044168-213.689047 5.208394-320.535641-14.507323-44.457656-8.450184-82.531096-49.765415-83.421243-87.863696-0.857025-38.193507 36.235184-62.61665 81.239349-57.019076 107.943751 14.142983 215.887503 17.612485 323.827113 10.408507 45.004164-2.807067 82.009429 25.325711 81.450499 65.324352z" fill="#FFD28F" p-id="1051"></path><path d="M502.171124 312.942482c26.224138 30.757676-8.127247 77.612518-54.24099 127.878898-45.708001 50.320204-83.74832 83.706918-110.527247 52.493818-26.985938-31.105454-5.763183-94.434221 40.582412-144.592956 46.44496-50.204278 98.20596-66.719605 124.185825-35.77976zM174.058885 493.977633c1.15098 2.157053-116.663049 63.101055-63.999483 131.923891 0.086945-0.120066 36.562261 31.192399 43.19489-32.525549 7.659402-63.00169 55.420952-98.056912 20.804593-99.398342z" fill="#FFFFFF" opacity=".55" p-id="1052"></path><path d="M769.223434 409.811151c-42.805709-81.07374-107.956172-160.098071-237.938301-176.795569 17.036995 1.386973 63.080354 20.597582 111.119298 76.51122 46.316613 56.364921 94.620531 149.437011 76.407715 308.963733 0.302236-0.405741-26.418728 84.617766 57.387555 50.460971 16.813423-6.947285 36.202062-39.307225 39.286524-88.857348 1.726471-6.553964 2.397186-13.550932 1.565002-20.982623-5.162851-47.898177 39.667424-71.36907 59.937929-24.870286l-0.016561-0.049683c12.101856 31.58986 12.052173 63.055513 10.404367 86.323535-12.805693 152.413828-201.732099 175.893001-200.142255 172.121263 0-0.024841-15.567218 1.565002-41.406316 3.250071-18.693082-1.792714-49.409356-0.405741-44.871677-14.047758 38.889063-119.068516 44.91308-112.29512-10.358825-72.760183-55.184959 37.456548-171.67412 107.678777-375.836526 67.539369-29.056047-6.487721 29.710201 6.934864 0 0a573.10133 573.10133 0 0 1-46.411838-6.508422c-25.942603-4.723988-41.509821-8.011321-41.509821-7.98234 22.249529 41.11236 116.497441 75.078705 116.422917 74.379008 0-0.811483 95.589342 18.200396 205.988242 21.458748 110.3989 5.402984 235.607359-4.9517 294.83317-14.925485 117.164016-17.807076 188.42544-75.790822 219.713064-201.922548 33.751053-168.862912-166.440885-218.781515-194.573663-231.305673z m-556.279626 78.771779c-15.666583 106.453273 83.723479 165.480354 108.771795 141.955638 24.543209-24.129188-87.822294-115.056645-59.826144-230.332722 0-0.799062-87.681527 13.981515-163.538592 95.133919 1.391113 2.301961 129.278292-98.417111 114.592941-6.756835z" fill="#D66D6D" p-id="1053"></path><path d="M493.099907 29.018785c0.546509-0.397461-50.742506 17.144641-45.351943 71.099955-0.235992-0.016561 8.847645 25.168382 22.787758-13.078947 13.786924-38.305293 34.993119-48.962212 22.564185-58.021008z" fill="#FFFFFF" p-id="1054"></path><path d="M515.270772 6.694732c19.678454 14.08502 28.062394 34.07813 29.929632 70.412679 3.216949 49.272729-26.26554 88.671039-65.419577 89.407998-38.222488 0.695557-57.780876-24.994493-52.874718-72.89681a162.660866 162.660866 0 0 0-5.046925 25.760433c-7.849852 60.819795 28.960822 108.916702 80.808766 108.933263 51.847944-0.277395 89.283791-48.7345 82.373768-109.732325-6.09854-55.056613-37.435847-103.199062-69.770946-111.885238z" fill="#A6D7E0" p-id="1055"></path><path d="M866.501985 582.495484c-1.213084 25.619666-12.540719 46.312473-24.468685 45.753544-11.927967-0.604472-7.05079-21.868629-5.626556-47.894037 1.444936-26.058529-1.035054-47.256443 10.603097-46.097182 11.596749 1.192383 20.725929 22.605588 19.492144 48.237675z" fill="#FFFFFF" opacity=".55" p-id="1056"></path></svg>